<?xml version="1.0" encoding="utf-8"?>
<!-- Generator: Adobe Illustrator 23.0.1, SVG Export Plug-In . SVG Version: 6.00 Build 0)  -->
<svg version="1.1" id="レイヤー_1" xmlns="http://www.w3.org/2000/svg" xmlns:xlink="http://www.w3.org/1999/xlink" x="0px"
	 y="0px" viewBox="0 0 100.6 100.6" style="enable-background:new 0 0 100.6 100.6;" xml:space="preserve">
<style type="text/css">
	.st0{fill:#49A0EB;}
</style>
<path class="st0" d="M89.8,0H10.8C4.8,0,0,4.8,0,10.8v79.1c0,6,4.8,10.8,10.8,10.8h79.1c6,0,10.8-4.8,10.8-10.8V10.8
	C100.6,4.8,95.8,0,89.8,0z M78.9,35.7c0,0.6,0,1.3,0,1.9C78.9,57,64.1,79.5,37,79.5c-8.4,0-16.1-2.4-22.6-6.6
	c1.2,0.1,2.3,0.2,3.5,0.2c6.9,0,13.2-2.3,18.3-6.3c-6.5-0.1-11.9-4.4-13.8-10.2c2.3,0.3,4.3,0.3,6.6-0.3
	c-6.7-1.4-11.8-7.3-11.8-14.5v-0.2c2,1.1,4.2,1.8,6.6,1.9c-4.1-2.7-6.6-7.3-6.6-12.3c0-2.7,0.7-5.3,2-7.4
	c7.3,8.9,18.1,14.8,30.4,15.4c-2.1-10,5.4-18.1,14.4-18.1c4.2,0,8.1,1.8,10.8,4.6c3.3-0.6,6.5-1.9,9.3-3.5c-1.1,3.4-3.4,6.3-6.5,8.1
	c3-0.3,5.8-1.1,8.5-2.3C84.2,31,81.7,33.6,78.9,35.7z"/>
</svg>
